<mxfile host="Electron" modified="2023-07-31T15:07:52.948Z" agent="Mozilla/5.0 (Windows NT 10.0; Win64; x64) AppleWebKit/537.36 (KHTML, like Gecko) draw.io/21.5.1 Chrome/112.0.5615.204 Electron/24.6.0 Safari/537.36" etag="-sjOCsAWYpkiHWdOloBr" version="21.5.1" type="device">
  <diagram name="Page-1" id="7nIbmzHHHe7wAutQFev3">
    <mxGraphModel dx="2058" dy="2007" grid="1" gridSize="10" guides="1" tooltips="1" connect="1" arrows="1" fold="1" page="1" pageScale="1" pageWidth="827" pageHeight="1169" math="0" shadow="0">
      <root>
        <mxCell id="0" />
        <mxCell id="1" parent="0" />
        <mxCell id="6dRfuFZK9p9CnIERoRmi-7" style="edgeStyle=orthogonalEdgeStyle;rounded=0;orthogonalLoop=1;jettySize=auto;html=1;" parent="1" source="Mg_yC3POPH4g1C4O8XF4-1" target="6dRfuFZK9p9CnIERoRmi-6" edge="1">
          <mxGeometry relative="1" as="geometry" />
        </mxCell>
        <mxCell id="6dRfuFZK9p9CnIERoRmi-17" value="Interview" style="edgeStyle=orthogonalEdgeStyle;rounded=0;orthogonalLoop=1;jettySize=auto;html=1;startArrow=classic;startFill=1;" parent="1" source="Mg_yC3POPH4g1C4O8XF4-1" target="Mg_yC3POPH4g1C4O8XF4-3" edge="1">
          <mxGeometry relative="1" as="geometry" />
        </mxCell>
        <mxCell id="Mg_yC3POPH4g1C4O8XF4-1" value="Recruiter" style="sketch=0;outlineConnect=0;fontColor=#232F3E;gradientColor=none;fillColor=#232F3D;strokeColor=none;dashed=0;verticalLabelPosition=bottom;verticalAlign=top;align=center;html=1;fontSize=12;fontStyle=0;aspect=fixed;pointerEvents=1;shape=mxgraph.aws4.user;" parent="1" vertex="1">
          <mxGeometry x="20" y="230" width="78" height="78" as="geometry" />
        </mxCell>
        <mxCell id="6dRfuFZK9p9CnIERoRmi-47" style="edgeStyle=orthogonalEdgeStyle;rounded=0;orthogonalLoop=1;jettySize=auto;html=1;" parent="1" source="Mg_yC3POPH4g1C4O8XF4-2" target="6dRfuFZK9p9CnIERoRmi-46" edge="1">
          <mxGeometry relative="1" as="geometry" />
        </mxCell>
        <mxCell id="Mg_yC3POPH4g1C4O8XF4-2" value="Employer" style="sketch=0;outlineConnect=0;fontColor=#232F3E;gradientColor=none;fillColor=#232F3D;strokeColor=none;dashed=0;verticalLabelPosition=bottom;verticalAlign=top;align=center;html=1;fontSize=12;fontStyle=0;aspect=fixed;pointerEvents=1;shape=mxgraph.aws4.user;" parent="1" vertex="1">
          <mxGeometry x="1430" y="-50" width="78" height="78" as="geometry" />
        </mxCell>
        <mxCell id="Mg_yC3POPH4g1C4O8XF4-3" value="Candidate" style="sketch=0;outlineConnect=0;fontColor=#232F3E;gradientColor=none;fillColor=#232F3D;strokeColor=none;dashed=0;verticalLabelPosition=top;verticalAlign=bottom;align=center;html=1;fontSize=12;fontStyle=0;aspect=fixed;pointerEvents=1;shape=mxgraph.aws4.user;labelPosition=center;" parent="1" vertex="1">
          <mxGeometry x="20" y="10" width="78" height="78" as="geometry" />
        </mxCell>
        <mxCell id="6dRfuFZK9p9CnIERoRmi-12" style="edgeStyle=orthogonalEdgeStyle;rounded=0;orthogonalLoop=1;jettySize=auto;html=1;" parent="1" source="6dRfuFZK9p9CnIERoRmi-1" target="6dRfuFZK9p9CnIERoRmi-11" edge="1">
          <mxGeometry relative="1" as="geometry" />
        </mxCell>
        <mxCell id="6dRfuFZK9p9CnIERoRmi-13" style="edgeStyle=orthogonalEdgeStyle;rounded=0;orthogonalLoop=1;jettySize=auto;html=1;" parent="1" source="6dRfuFZK9p9CnIERoRmi-1" target="6dRfuFZK9p9CnIERoRmi-10" edge="1">
          <mxGeometry relative="1" as="geometry" />
        </mxCell>
        <mxCell id="6dRfuFZK9p9CnIERoRmi-1" value="Recruiter.LambdaConsole::SaveCandidate (Producer)" style="outlineConnect=0;dashed=0;verticalLabelPosition=top;verticalAlign=bottom;align=center;html=1;shape=mxgraph.aws3.lambda_function;fillColor=#F58534;gradientColor=none;labelPosition=center;" parent="1" vertex="1">
          <mxGeometry x="754.5" y="232" width="69" height="72" as="geometry" />
        </mxCell>
        <mxCell id="6dRfuFZK9p9CnIERoRmi-21" style="edgeStyle=orthogonalEdgeStyle;rounded=0;orthogonalLoop=1;jettySize=auto;html=1;entryX=0.25;entryY=1;entryDx=0;entryDy=0;entryPerimeter=0;" parent="1" source="6dRfuFZK9p9CnIERoRmi-5" target="6dRfuFZK9p9CnIERoRmi-19" edge="1">
          <mxGeometry relative="1" as="geometry">
            <Array as="points">
              <mxPoint x="360" y="139" />
            </Array>
          </mxGeometry>
        </mxCell>
        <mxCell id="6dRfuFZK9p9CnIERoRmi-35" style="edgeStyle=orthogonalEdgeStyle;rounded=0;orthogonalLoop=1;jettySize=auto;html=1;" parent="1" source="6dRfuFZK9p9CnIERoRmi-5" target="6dRfuFZK9p9CnIERoRmi-34" edge="1">
          <mxGeometry relative="1" as="geometry" />
        </mxCell>
        <mxCell id="6dRfuFZK9p9CnIERoRmi-40" style="edgeStyle=orthogonalEdgeStyle;rounded=0;orthogonalLoop=1;jettySize=auto;html=1;exitX=0.25;exitY=1;exitDx=0;exitDy=0;exitPerimeter=0;entryX=0.25;entryY=0;entryDx=0;entryDy=0;entryPerimeter=0;" parent="1" source="6dRfuFZK9p9CnIERoRmi-5" target="6dRfuFZK9p9CnIERoRmi-30" edge="1">
          <mxGeometry relative="1" as="geometry" />
        </mxCell>
        <mxCell id="6dRfuFZK9p9CnIERoRmi-5" value="API Gateway" style="sketch=0;points=[[0,0,0],[0.25,0,0],[0.5,0,0],[0.75,0,0],[1,0,0],[0,1,0],[0.25,1,0],[0.5,1,0],[0.75,1,0],[1,1,0],[0,0.25,0],[0,0.5,0],[0,0.75,0],[1,0.25,0],[1,0.5,0],[1,0.75,0]];outlineConnect=0;fontColor=#232F3E;gradientColor=#FF4F8B;gradientDirection=north;fillColor=#BC1356;strokeColor=#ffffff;dashed=0;verticalLabelPosition=bottom;verticalAlign=top;align=center;html=1;fontSize=12;fontStyle=0;aspect=fixed;shape=mxgraph.aws4.resourceIcon;resIcon=mxgraph.aws4.api_gateway;" parent="1" vertex="1">
          <mxGeometry x="336" y="230" width="78" height="78" as="geometry" />
        </mxCell>
        <mxCell id="6dRfuFZK9p9CnIERoRmi-8" style="edgeStyle=orthogonalEdgeStyle;rounded=0;orthogonalLoop=1;jettySize=auto;html=1;" parent="1" source="6dRfuFZK9p9CnIERoRmi-6" target="6dRfuFZK9p9CnIERoRmi-5" edge="1">
          <mxGeometry relative="1" as="geometry" />
        </mxCell>
        <mxCell id="6dRfuFZK9p9CnIERoRmi-6" value="Front end" style="sketch=0;outlineConnect=0;fontColor=#232F3E;gradientColor=none;fillColor=#3F8624;strokeColor=none;dashed=0;verticalLabelPosition=bottom;verticalAlign=top;align=center;html=1;fontSize=12;fontStyle=0;aspect=fixed;pointerEvents=1;shape=mxgraph.aws4.bucket;" parent="1" vertex="1">
          <mxGeometry x="180" y="230" width="75" height="78" as="geometry" />
        </mxCell>
        <mxCell id="6dRfuFZK9p9CnIERoRmi-10" value="S3" style="sketch=0;outlineConnect=0;fontColor=#232F3E;gradientColor=none;fillColor=#3F8624;strokeColor=none;dashed=0;verticalLabelPosition=bottom;verticalAlign=top;align=center;html=1;fontSize=12;fontStyle=0;aspect=fixed;pointerEvents=1;shape=mxgraph.aws4.bucket;" parent="1" vertex="1">
          <mxGeometry x="864.5" y="442" width="75" height="78" as="geometry" />
        </mxCell>
        <mxCell id="6dRfuFZK9p9CnIERoRmi-11" value="DynamoDB" style="sketch=0;points=[[0,0,0],[0.25,0,0],[0.5,0,0],[0.75,0,0],[1,0,0],[0,1,0],[0.25,1,0],[0.5,1,0],[0.75,1,0],[1,1,0],[0,0.25,0],[0,0.5,0],[0,0.75,0],[1,0.25,0],[1,0.5,0],[1,0.75,0]];outlineConnect=0;fontColor=#232F3E;gradientColor=#4D72F3;gradientDirection=north;fillColor=#3334B9;strokeColor=#ffffff;dashed=0;verticalLabelPosition=bottom;verticalAlign=top;align=center;html=1;fontSize=12;fontStyle=0;aspect=fixed;shape=mxgraph.aws4.resourceIcon;resIcon=mxgraph.aws4.dynamodb;" parent="1" vertex="1">
          <mxGeometry x="750" y="442" width="78" height="78" as="geometry" />
        </mxCell>
        <mxCell id="6dRfuFZK9p9CnIERoRmi-14" value="SNS (Message bus)" style="sketch=0;points=[[0,0,0],[0.25,0,0],[0.5,0,0],[0.75,0,0],[1,0,0],[0,1,0],[0.25,1,0],[0.5,1,0],[0.75,1,0],[1,1,0],[0,0.25,0],[0,0.5,0],[0,0.75,0],[1,0.25,0],[1,0.5,0],[1,0.75,0]];outlineConnect=0;fontColor=#232F3E;gradientColor=#FF4F8B;gradientDirection=north;fillColor=#BC1356;strokeColor=#ffffff;dashed=0;verticalLabelPosition=bottom;verticalAlign=top;align=center;html=1;fontSize=12;fontStyle=0;aspect=fixed;shape=mxgraph.aws4.resourceIcon;resIcon=mxgraph.aws4.sns;" parent="1" vertex="1">
          <mxGeometry x="974.5" y="442" width="78" height="78" as="geometry" />
        </mxCell>
        <mxCell id="6dRfuFZK9p9CnIERoRmi-16" value="Recruiter.LambdaConsole::ListCandidates" style="outlineConnect=0;dashed=0;verticalLabelPosition=bottom;verticalAlign=top;align=center;html=1;shape=mxgraph.aws3.lambda_function;fillColor=#F58534;gradientColor=none;" parent="1" vertex="1">
          <mxGeometry x="759" y="18" width="69" height="72" as="geometry" />
        </mxCell>
        <mxCell id="6dRfuFZK9p9CnIERoRmi-18" value="OpenSearch (Elasticsearch) fatrigespu@gufum.com / elastic / ySz6QD*062*z" style="sketch=0;points=[[0,0,0],[0.25,0,0],[0.5,0,0],[0.75,0,0],[1,0,0],[0,1,0],[0.25,1,0],[0.5,1,0],[0.75,1,0],[1,1,0],[0,0.25,0],[0,0.5,0],[0,0.75,0],[1,0.25,0],[1,0.5,0],[1,0.75,0]];outlineConnect=0;fontColor=#232F3E;gradientColor=#945DF2;gradientDirection=north;fillColor=#5A30B5;strokeColor=#ffffff;dashed=0;verticalLabelPosition=bottom;verticalAlign=top;align=center;html=1;fontSize=12;fontStyle=0;aspect=fixed;shape=mxgraph.aws4.resourceIcon;resIcon=mxgraph.aws4.elasticsearch_service;" parent="1" vertex="1">
          <mxGeometry x="1265.5" y="100" width="78" height="78" as="geometry" />
        </mxCell>
        <mxCell id="6dRfuFZK9p9CnIERoRmi-28" style="edgeStyle=orthogonalEdgeStyle;rounded=0;orthogonalLoop=1;jettySize=auto;html=1;exitX=0.75;exitY=1;exitDx=0;exitDy=0;exitPerimeter=0;" parent="1" source="6dRfuFZK9p9CnIERoRmi-19" target="6dRfuFZK9p9CnIERoRmi-20" edge="1">
          <mxGeometry relative="1" as="geometry" />
        </mxCell>
        <mxCell id="6dRfuFZK9p9CnIERoRmi-19" value="Authorizer.LambdaConsole" style="sketch=0;points=[[0,0,0],[0.25,0,0],[0.5,0,0],[0.75,0,0],[1,0,0],[0,1,0],[0.25,1,0],[0.5,1,0],[0.75,1,0],[1,1,0],[0,0.25,0],[0,0.5,0],[0,0.75,0],[1,0.25,0],[1,0.5,0],[1,0.75,0]];outlineConnect=0;fontColor=#232F3E;gradientColor=#F78E04;gradientDirection=north;fillColor=#D05C17;strokeColor=#ffffff;dashed=0;verticalLabelPosition=top;verticalAlign=bottom;align=center;html=1;fontSize=12;fontStyle=0;aspect=fixed;shape=mxgraph.aws4.resourceIcon;resIcon=mxgraph.aws4.lambda;labelPosition=center;" parent="1" vertex="1">
          <mxGeometry x="340" y="-30" width="78" height="78" as="geometry" />
        </mxCell>
        <mxCell id="6dRfuFZK9p9CnIERoRmi-29" style="rounded=0;orthogonalLoop=1;jettySize=auto;html=1;edgeStyle=elbowEdgeStyle;" parent="1" source="6dRfuFZK9p9CnIERoRmi-20" target="6dRfuFZK9p9CnIERoRmi-5" edge="1">
          <mxGeometry relative="1" as="geometry" />
        </mxCell>
        <mxCell id="6dRfuFZK9p9CnIERoRmi-20" value="" style="sketch=0;outlineConnect=0;fontColor=#232F3E;gradientColor=none;fillColor=#3F8624;strokeColor=none;dashed=0;verticalLabelPosition=bottom;verticalAlign=top;align=center;html=1;fontSize=12;fontStyle=0;aspect=fixed;pointerEvents=1;shape=mxgraph.aws4.policy;" parent="1" vertex="1">
          <mxGeometry x="381" y="130" width="34.93" height="30" as="geometry" />
        </mxCell>
        <mxCell id="6dRfuFZK9p9CnIERoRmi-41" style="edgeStyle=elbowEdgeStyle;rounded=0;orthogonalLoop=1;jettySize=auto;html=1;exitX=0.75;exitY=0;exitDx=0;exitDy=0;exitPerimeter=0;" parent="1" source="6dRfuFZK9p9CnIERoRmi-30" target="6dRfuFZK9p9CnIERoRmi-39" edge="1">
          <mxGeometry relative="1" as="geometry" />
        </mxCell>
        <mxCell id="6dRfuFZK9p9CnIERoRmi-30" value="Cognito" style="sketch=0;points=[[0,0,0],[0.25,0,0],[0.5,0,0],[0.75,0,0],[1,0,0],[0,1,0],[0.25,1,0],[0.5,1,0],[0.75,1,0],[1,1,0],[0,0.25,0],[0,0.5,0],[0,0.75,0],[1,0.25,0],[1,0.5,0],[1,0.75,0]];outlineConnect=0;fontColor=#232F3E;gradientColor=#F54749;gradientDirection=north;fillColor=#C7131F;strokeColor=#ffffff;dashed=0;verticalLabelPosition=bottom;verticalAlign=top;align=center;html=1;fontSize=12;fontStyle=0;aspect=fixed;shape=mxgraph.aws4.resourceIcon;resIcon=mxgraph.aws4.cognito;" parent="1" vertex="1">
          <mxGeometry x="336" y="480" width="78" height="78" as="geometry" />
        </mxCell>
        <mxCell id="6dRfuFZK9p9CnIERoRmi-36" style="edgeStyle=orthogonalEdgeStyle;rounded=0;orthogonalLoop=1;jettySize=auto;html=1;entryX=0;entryY=0.5;entryDx=0;entryDy=0;entryPerimeter=0;" parent="1" source="6dRfuFZK9p9CnIERoRmi-34" target="6dRfuFZK9p9CnIERoRmi-1" edge="1">
          <mxGeometry relative="1" as="geometry" />
        </mxCell>
        <mxCell id="6dRfuFZK9p9CnIERoRmi-37" style="edgeStyle=orthogonalEdgeStyle;rounded=0;orthogonalLoop=1;jettySize=auto;html=1;entryX=0;entryY=0.5;entryDx=0;entryDy=0;entryPerimeter=0;" parent="1" source="6dRfuFZK9p9CnIERoRmi-34" target="6dRfuFZK9p9CnIERoRmi-16" edge="1">
          <mxGeometry relative="1" as="geometry">
            <Array as="points">
              <mxPoint x="660" y="268" />
              <mxPoint x="660" y="54" />
            </Array>
          </mxGeometry>
        </mxCell>
        <mxCell id="6dRfuFZK9p9CnIERoRmi-44" style="edgeStyle=orthogonalEdgeStyle;rounded=0;orthogonalLoop=1;jettySize=auto;html=1;dashed=1;dashPattern=8 8;" parent="1" source="6dRfuFZK9p9CnIERoRmi-34" target="Mg_yC3POPH4g1C4O8XF4-1" edge="1">
          <mxGeometry relative="1" as="geometry">
            <Array as="points">
              <mxPoint x="539" y="430" />
              <mxPoint x="59" y="430" />
            </Array>
          </mxGeometry>
        </mxCell>
        <mxCell id="6dRfuFZK9p9CnIERoRmi-34" value="" style="sketch=0;outlineConnect=0;fontColor=#232F3E;gradientColor=none;fillColor=#232F3D;strokeColor=none;dashed=0;verticalLabelPosition=bottom;verticalAlign=top;align=center;html=1;fontSize=12;fontStyle=0;aspect=fixed;pointerEvents=1;shape=mxgraph.aws4.shield2;" parent="1" vertex="1">
          <mxGeometry x="500" y="229" width="78" height="78" as="geometry" />
        </mxCell>
        <mxCell id="6dRfuFZK9p9CnIERoRmi-38" value="Allowed" style="text;html=1;align=center;verticalAlign=middle;resizable=0;points=[];autosize=1;strokeColor=none;fillColor=none;fontColor=#006600;fontStyle=1;fontSize=16;" parent="1" vertex="1">
          <mxGeometry x="573" y="240" width="80" height="30" as="geometry" />
        </mxCell>
        <mxCell id="6dRfuFZK9p9CnIERoRmi-42" style="edgeStyle=elbowEdgeStyle;rounded=0;orthogonalLoop=1;jettySize=auto;html=1;entryX=0.75;entryY=1;entryDx=0;entryDy=0;entryPerimeter=0;" parent="1" source="6dRfuFZK9p9CnIERoRmi-39" target="6dRfuFZK9p9CnIERoRmi-5" edge="1">
          <mxGeometry relative="1" as="geometry" />
        </mxCell>
        <mxCell id="6dRfuFZK9p9CnIERoRmi-39" value="" style="sketch=0;outlineConnect=0;fontColor=#232F3E;gradientColor=none;fillColor=#3F8624;strokeColor=none;dashed=0;verticalLabelPosition=bottom;verticalAlign=top;align=center;html=1;fontSize=12;fontStyle=0;aspect=fixed;pointerEvents=1;shape=mxgraph.aws4.policy;" parent="1" vertex="1">
          <mxGeometry x="379" y="360" width="34.93" height="30" as="geometry" />
        </mxCell>
        <mxCell id="6dRfuFZK9p9CnIERoRmi-45" value="Denied" style="text;html=1;align=center;verticalAlign=middle;resizable=0;points=[];autosize=1;strokeColor=none;fillColor=none;fontColor=#ff0000;fontStyle=1;fontSize=16;" parent="1" vertex="1">
          <mxGeometry x="180" y="401" width="80" height="30" as="geometry" />
        </mxCell>
        <mxCell id="6dRfuFZK9p9CnIERoRmi-48" style="edgeStyle=orthogonalEdgeStyle;rounded=0;orthogonalLoop=1;jettySize=auto;html=1;" parent="1" source="6dRfuFZK9p9CnIERoRmi-46" target="6dRfuFZK9p9CnIERoRmi-18" edge="1">
          <mxGeometry relative="1" as="geometry" />
        </mxCell>
        <mxCell id="6dRfuFZK9p9CnIERoRmi-46" value="Search" style="outlineConnect=0;dashed=0;verticalLabelPosition=bottom;verticalAlign=top;align=center;html=1;shape=mxgraph.aws3.lambda_function;fillColor=#F58534;gradientColor=none;" parent="1" vertex="1">
          <mxGeometry x="1270" y="-47" width="69" height="72" as="geometry" />
        </mxCell>
        <mxCell id="6dRfuFZK9p9CnIERoRmi-56" style="edgeStyle=orthogonalEdgeStyle;rounded=0;orthogonalLoop=1;jettySize=auto;html=1;" parent="1" source="6dRfuFZK9p9CnIERoRmi-49" target="6dRfuFZK9p9CnIERoRmi-18" edge="1">
          <mxGeometry relative="1" as="geometry" />
        </mxCell>
        <mxCell id="6dRfuFZK9p9CnIERoRmi-49" value="(Consumer)" style="outlineConnect=0;dashed=0;verticalLabelPosition=bottom;verticalAlign=top;align=center;html=1;shape=mxgraph.aws3.lambda_function;fillColor=#F58534;gradientColor=none;" parent="1" vertex="1">
          <mxGeometry x="1120" y="250" width="69" height="72" as="geometry" />
        </mxCell>
        <mxCell id="6dRfuFZK9p9CnIERoRmi-51" value="" style="endArrow=classic;html=1;rounded=0;exitX=1;exitY=0.5;exitDx=0;exitDy=0;exitPerimeter=0;entryX=0.5;entryY=1;entryDx=0;entryDy=0;entryPerimeter=0;edgeStyle=orthogonalEdgeStyle;" parent="1" source="6dRfuFZK9p9CnIERoRmi-14" target="6dRfuFZK9p9CnIERoRmi-49" edge="1">
          <mxGeometry relative="1" as="geometry">
            <mxPoint x="1100" y="450" as="sourcePoint" />
            <mxPoint x="1200" y="450" as="targetPoint" />
          </mxGeometry>
        </mxCell>
        <mxCell id="6dRfuFZK9p9CnIERoRmi-52" value="" style="shape=message;html=1;outlineConnect=0;" parent="6dRfuFZK9p9CnIERoRmi-51" vertex="1">
          <mxGeometry width="20" height="14" relative="1" as="geometry">
            <mxPoint x="-10" y="-7" as="offset" />
          </mxGeometry>
        </mxCell>
        <mxCell id="6dRfuFZK9p9CnIERoRmi-53" value="" style="endArrow=classic;html=1;rounded=0;exitX=1;exitY=0.5;exitDx=0;exitDy=0;exitPerimeter=0;entryX=0.5;entryY=0;entryDx=0;entryDy=0;entryPerimeter=0;edgeStyle=orthogonalEdgeStyle;" parent="1" source="6dRfuFZK9p9CnIERoRmi-1" target="6dRfuFZK9p9CnIERoRmi-14" edge="1">
          <mxGeometry relative="1" as="geometry">
            <mxPoint x="1000" y="230" as="sourcePoint" />
            <mxPoint x="1100" y="230" as="targetPoint" />
          </mxGeometry>
        </mxCell>
        <mxCell id="6dRfuFZK9p9CnIERoRmi-54" value="" style="shape=message;html=1;outlineConnect=0;" parent="6dRfuFZK9p9CnIERoRmi-53" vertex="1">
          <mxGeometry width="20" height="14" relative="1" as="geometry">
            <mxPoint x="-10" y="-7" as="offset" />
          </mxGeometry>
        </mxCell>
        <mxCell id="6dRfuFZK9p9CnIERoRmi-57" value="Recruitment Diagram" style="rounded=0;whiteSpace=wrap;html=1;fontSize=50;fillColor=#d5e8d4;strokeColor=#82b366;" parent="1" vertex="1">
          <mxGeometry x="20" y="-200" width="1490" height="60" as="geometry" />
        </mxCell>
      </root>
    </mxGraphModel>
  </diagram>
</mxfile>
